<?xml version="1.0" encoding="UTF-8" standalone="no"?>
<!-- Created with Inkscape (http://www.inkscape.org/) -->

<svg
   xmlns:dc="http://purl.org/dc/elements/1.1/"
   xmlns:cc="http://creativecommons.org/ns#"
   xmlns:rdf="http://www.w3.org/1999/02/22-rdf-syntax-ns#"
   xmlns:svg="http://www.w3.org/2000/svg"
   xmlns="http://www.w3.org/2000/svg"
   xmlns:sodipodi="http://sodipodi.sourceforge.net/DTD/sodipodi-0.dtd"
   xmlns:inkscape="http://www.inkscape.org/namespaces/inkscape"
   id="svg2"
   version="1.1"
   inkscape:version="0.48.3.1 r9886"
   width="744.09448"
   height="1052.3622"
   xml:space="preserve"
   sodipodi:docname="AMTitlepage.svg"><metadata
     id="metadata8"><rdf:RDF><cc:Work
         rdf:about=""><dc:format>image/svg+xml</dc:format><dc:type
           rdf:resource="http://purl.org/dc/dcmitype/StillImage" /><dc:title /></cc:Work></rdf:RDF></metadata><defs
     id="defs6" /><sodipodi:namedview
     pagecolor="#ffffff"
     bordercolor="#666666"
     borderopacity="1"
     objecttolerance="10"
     gridtolerance="10"
     guidetolerance="10"
     inkscape:pageopacity="0"
     inkscape:pageshadow="2"
     inkscape:window-width="1916"
     inkscape:window-height="1115"
     id="namedview4"
     showgrid="false"
     showguides="true"
     inkscape:guide-bbox="true"
     inkscape:zoom="2.8284271"
     inkscape:cx="246.45957"
     inkscape:cy="981.7202"
     inkscape:window-x="0"
     inkscape:window-y="0"
     inkscape:window-maximized="1"
     inkscape:current-layer="g10"
     units="mm"><sodipodi:guide
       orientation="0,1"
       position="690.87109,999.2126"
       id="guide3177" /><sodipodi:guide
       orientation="1,0"
       position="53.149606,952.36198"
       id="guide3179" /><sodipodi:guide
       orientation="1,0"
       position="690.94141,999.13672"
       id="guide3192" /><sodipodi:guide
       orientation="0,1"
       position="43.292969,963.77953"
       id="guide3023" /><sodipodi:guide
       orientation="0,1"
       position="622.96107,944.85827"
       id="guide3007" /><sodipodi:guide
       orientation="0,1"
       position="648.88096,970.08421"
       id="guide3013" /></sodipodi:namedview><g
     id="g10"
     inkscape:groupmode="layer"
     inkscape:label="AMpaperTitlepage"
     transform="matrix(1.25,0,0,-1.25,0,1052.3622)"><rect
   style="fill:#ffffff;fill-opacity:1;stroke:none"
   id="rect3003"
   width="595.27557"
   height="841.88977"
   x="3.3834187e-08"
   y="-841.88977"
   transform="scale(1,-1)" /><g
   transform="matrix(2.7752304,0,0,-2.7752304,27.395015,817.06443)"
   style="fill-rule:evenodd"
   id="Logo_x0020_Farbe"><path
     style="fill:#99c1e5"
     inkscape:connector-curvature="0"
     d="m 15.2388,15.8394 c -0.5162,-0.2244 -0.8813,-0.4716 -1.2151,-0.7583 -0.4924,0.1255 -0.9924,0.27 -1.4754,0.4279 -0.2771,0.0906 -0.5484,0.1855 -0.8093,0.2837 0.1577,0.1466 0.3231,0.2754 0.4971,0.3833 l 3.0027,0.0043 0,-0.3409 z m -1.4044,-0.9275 c -0.162,-0.1503 -0.3218,-0.3111 -0.4942,-0.4845 -0.3078,-0.3097 -0.6568,-0.6608 -1.1328,-1.0649 -0.5503,0.0493 -1.2077,0.1714 -1.9013,0.335 0.249,0.5039 0.5169,0.9755 0.8142,1.385 0.1439,0.1982 0.2946,0.3817 0.4532,0.5471 0.2919,-0.1118 0.5972,-0.2195 0.9094,-0.3216 0.442,-0.1445 0.8987,-0.278 1.3515,-0.3961 z m -1.8475,-1.739 c -0.5078,-0.1035 -1.0118,-0.314 -1.506,-0.7921 -0.0416,-0.0402 -0.0825,-0.0791 -0.1229,-0.1166 -0.1021,0.2789 -0.1792,0.5503 -0.2252,0.8088 -0.012,0.0673 -0.0219,0.1337 -0.0295,0.1991 0.0357,0.0775 0.0717,0.1544 0.1081,0.2307 0.6366,-0.1514 1.2458,-0.2691 1.7755,-0.3299 z M 9.6173,11.6803 C 9.2664,11.4612 8.9552,11.3605 8.6508,11.3431 c 0.1984,0.1064 0.3824,0.2597 0.5535,0.4479 0.0966,0.1062 0.1891,0.2237 0.2778,0.3501 0.0398,-0.1527 0.0849,-0.3065 0.1352,-0.4608 z m 5.6215,3.1276 c -0.31,0.0599 -0.6326,0.1304 -0.9606,0.2099 0.2707,0.2185 0.5704,0.4125 0.9606,0.5903 l 0,-0.8002 z m 0,-0.8754 c -0.9183,-0.6957 -1.8655,-0.5916 -2.8051,-0.6922 l 0.002,0.0398 c 0.4351,0.3758 0.7629,0.7055 1.0541,0.9985 0.2065,0.2077 0.3944,0.3967 0.59,0.5707 0.396,-0.0988 0.7866,-0.1852 1.159,-0.2562 l 0,-0.6606 z M 8.1111,11.3926 C 7.6873,11.4877 7.2393,11.7017 6.681,11.9439 7.2664,12.2526 7.6605,13.1765 7.9933,14.1207 8.417,13.9879 8.8552,13.858 9.2921,13.7386 9.2816,13.5328 9.2873,13.3205 9.3077,13.1033 9.3287,12.8801 9.3652,12.652 9.4153,12.4207 9.2997,12.2403 9.1775,12.0756 9.0481,11.9332 8.7708,11.6282 8.4603,11.4263 8.1111,11.3926 z m -0.0483,2.9277 c 0.0439,0.1278 0.0869,0.2552 0.1293,0.3808 0.1993,0.5906 0.3841,1.1384 0.5803,1.47 l 1.5655,0.0022 C 10.644,16.0156 10.99,15.861 11.3615,15.7126 11.2177,15.557 11.0805,15.3875 10.9491,15.2065 10.6365,14.7759 10.3559,14.2788 10.0958,13.7481 l -0.0063,0.0016 c 0.0044,0.0607 0.0114,0.1201 0.0211,0.178 0.0462,0.2768 0.0019,0.6705 -0.0917,0.8868 -0.035,0.0807 -0.0795,0.1433 -0.1328,0.1775 l 10e-5,2e-4 C 9.8102,15.041 9.7293,15.039 9.6478,14.9695 9.5618,14.8961 9.4718,14.718 9.388,14.3903 9.3519,14.2491 9.3259,14.1031 9.3093,13.953 8.8898,14.0683 8.4695,14.1929 8.0628,14.3203 z m 3.8022,1.8552 c -0.1188,-0.0908 -0.2333,-0.1909 -0.344,-0.299 -0.2463,0.0967 -0.4817,0.1962 -0.7019,0.2975 l 1.0459,0.0015 z M 6.4018,12.0629 C 6.2353,12.1325 6.059,12.2031 5.8712,12.2728 l 0,2.5805 C 6.4073,14.6485 7.0744,14.4136 7.792,14.1844 7.4367,13.1758 7.0153,12.2 6.4018,12.0629 z m -0.7388,0.285 -0.0018,6e-4 0,2.5861 0.0018,-7e-4 0,-2.586 z m 2.8686,3.8228 C 8.3457,15.8165 8.1748,15.3099 7.9919,14.7681 7.9492,14.6415 7.9058,14.5129 7.8614,14.384 7.1115,14.6233 6.4171,14.869 5.8712,15.0796 l 0,1.0873 2.6604,0.0038 z m -2.8686,-1.0096 -0.0018,7e-4 0,1.2165 0.1059,0 -0.1041,-10e-5 0,-0.1057 0,-1.1114 z"
     class="fil1"
     id="Flaeche" /><path
     style="fill:#0065bd;fill-rule:nonzero"
     inkscape:connector-curvature="0"
     d="m 15.6605,11.6534 0,4.8307 0,0.1058 -0.1058,0 -9.9993,0 -0.1058,0 0,-0.1058 0,-5.4153 0,-4.584 0,-0.1058 0.1058,0 7.0346,0 c 0.0273,0.0667 0.0583,0.1343 0.0928,0.2024 l 0,0.0092 -7.0216,0 0,4.4782 0,5.3095 9.7877,0 0,-4.6423 0.0032,-6e-4 0.0033,-6e-4 0.0022,-4e-4 0.001,-3e-4 0.0032,-6e-4 0.0032,-7e-4 0.0032,-7e-4 0.0031,-7e-4 0.0032,-7e-4 0.0031,-7e-4 0.0029,-6e-4 3e-4,-10e-5 0.0031,-7e-4 0.0031,-8e-4 0.0031,-8e-4 0.0015,-3e-4 0.0015,-4e-4 0.0031,-8e-4 0.003,-8e-4 0.0061,-0.0017 0.003,-8e-4 0.003,-9e-4 0.0022,-6e-4 8e-4,-2e-4 0.003,-9e-4 0.0029,-9e-4 0.003,-9e-4 0.001,-3e-4 0.0019,-6e-4 0.0029,-0.001 0.0029,-9e-4 0.0028,-9e-4 10e-5,0 0.0029,-10e-4 0.0029,-0.001 0.0028,-10e-4 0.0016,-5e-4 0.0013,-5e-4 0.0028,-0.001 0.0028,-10e-4 0.0028,-10e-4 4e-4,-2e-4 0.0024,-9e-4 0.0028,-10e-4 0.0027,-0.0011 0.0021,-8e-4 7e-4,-3e-4 0.0027,-0.0011 0.0027,-0.0011 0.0027,-0.0011 10e-4,-4e-4 0.0017,-7e-4 0.0027,-0.0012 0.0027,-0.0011 0.0026,-0.0011 0,-10e-5 0.0027,-0.0012 0.0026,-0.0012 0.0026,-0.0011 0.0015,-7e-4 0.0011,-6e-4 0.0026,-0.0012 0.0026,-0.0012 0.0025,-0.0012 5e-4,-3e-4 0.002,-10e-4 0.0026,-0.0013 0.0025,-0.0012 0.002,-0.001 5e-4,-3e-4 0.0025,-0.0013 0.0024,-0.0013 0.0025,-0.0013 10e-4,-5e-4 0.0015,-9e-4 0.0024,-0.0013 0.0024,-0.0013 0.0024,-0.0014 4e-4,0 10e-4,-6e-4 9e-4,-5e-4 10e-4,-6e-4 8e-4,-5e-4 0.0011,-6e-4 0.001,-6e-4 10e-4,-5e-4 7e-4,-5e-4 2e-4,-10e-5 10e-4,-6e-4 9e-4,-5e-4 10e-4,-6e-4 5e-4,-4e-4 4e-4,-2e-4 10e-4,-6e-4 9e-4,-6e-4 10e-4,-5e-4 4e-4,-3e-4 5e-4,-3e-4 10e-4,-6e-4 9e-4,-6e-4 9e-4,-6e-4 3e-4,-2e-4 7e-4,-4e-4 9e-4,-6e-4 9e-4,-6e-4 9e-4,-6e-4 2e-4,-10e-5 8e-4,-5e-4 9e-4,-6e-4 9e-4,-6e-4 9e-4,-6e-4 10e-5,0 8e-4,-6e-4 10e-4,-6e-4 9e-4,-6e-4 8e-4,-5e-4 10e-5,-10e-5 9e-4,-6e-4 z"
     class="fil2"
     id="Rahmen_x0020_aussen" /><g
     id="Manschgerl"><path
       style="fill:#0065bd"
       inkscape:connector-curvature="0"
       d="M 10.224,12.0238 C 10.1487,11.9826 10.0721,11.9392 9.9948,11.894 l -2e-4,3e-4 C 9.932,11.8577 9.8693,11.8199 9.8068,11.7812 9.6593,12.2406 9.5581,12.6928 9.5177,13.1227 l 0,4e-4 c -0.0406,0.4311 -0.0203,0.8415 0.0753,1.2152 0.0706,0.2761 0.1345,0.4185 0.1889,0.4681 0.0134,-0.0142 0.0282,-0.0406 0.0434,-0.0755 0.0801,-0.1851 0.1174,-0.5261 0.0769,-0.7684 -0.0476,-0.2841 -0.0365,-0.596 0.0222,-0.9259 0.0573,-0.3219 0.1607,-0.6627 0.2996,-1.0128 z"
       class="fil0"
       id="Fuss" /><path
       style="fill:#0065bd"
       inkscape:connector-curvature="0"
       d="m 15.6189,11.2821 c -0.0323,-0.14 -0.187,-0.3048 -0.4954,-0.439 -0.3214,-0.1398 -0.5615,-0.1394 -0.694,-0.0641 -0.0407,0.0231 -0.0695,0.0534 -0.0848,0.0878 -0.015,0.0337 -0.018,0.0743 -0.0078,0.1184 l 0,4e-4 c 0.0326,0.1407 0.188,0.3066 0.4964,0.4408 0.3191,0.1389 0.5591,0.1379 0.6922,0.0623 l -10e-5,-2e-4 c 0.041,-0.0234 0.07,-0.0537 0.0853,-0.0879 0.0151,-0.0338 0.0184,-0.0744 0.0082,-0.1185 z"
       class="fil0"
       id="linke_x0020_Hand" /><path
       style="fill:#0065bd"
       inkscape:connector-curvature="0"
       d="M 15.6435,10.9321 C 15.3114,10.1229 14.3677,9.1594 13.2056,8.442 13.1398,8.4912 13.0743,8.5426 13.009,8.596 l -0.0217,0.0256 c 0.8219,0.5763 1.4374,1.3574 1.4437,1.9287 0.1867,-0.0577 0.4542,-0.0411 0.7769,0.0992 0.1903,0.0828 0.334,0.1806 0.4356,0.2826 z"
       class="fil0"
       id="linker_x0020_Arm" /><path
       style="fill:#0065bd"
       inkscape:connector-curvature="0"
       d="m 13.929,11.8571 c 0.068,-0.0976 -2.1204,-1.993 -2.3012,-1.45 -0.0074,0.0221 -0.0314,0.3201 -0.0386,0.4443 C 11.3823,10.7775 11.1723,10.6874 10.9631,10.581 9.5871,9.8817 8.7604,8.7453 9.1172,8.0433 9.4033,7.4803 10.5881,7.5469 11.6909,7.904 11.7504,7.8265 11.8103,7.7503 11.8705,7.6758 10.0194,6.9665 8.0705,6.9466 7.5906,7.8912 c -0.5497,1.0816 0.724,2.8328 2.8444,3.9104 0.3491,0.1774 0.6995,0.3255 1.0436,0.4443 -0.011,0.1247 -0.032,0.3229 -0.0209,0.3688 0.1475,0.6054 2.3053,-0.5194 2.4713,-0.7576 z"
       class="fil0"
       id="rechter_x0020_Arm" /><path
       style="fill:#0065bd"
       inkscape:connector-curvature="0"
       d="m 10.624,9.957 c 0.0898,0.0653 0.1823,0.1285 0.2771,0.1889 l 2e-4,-3e-4 c 0.0959,0.061 0.1938,0.1195 0.2932,0.1747 C 11.589,9.7405 12.0242,9.2169 12.4788,8.7834 12.8879,8.3933 13.3137,8.075 13.7414,7.853 13.6931,7.8132 13.6447,7.7713 13.5967,7.7274 l -2e-4,2e-4 C 13.5433,7.679 13.4901,7.6276 13.4374,7.5735 13.3636,7.5042 13.2911,7.4305 13.2204,7.3525 l -2e-4,2e-4 -2e-4,-2e-4 L 13.2189,7.3514 13.2144,7.3458 C 13.0822,7.1994 12.9655,7.0478 12.8654,6.8955 12.4774,7.269 12.0912,7.7139 11.7205,8.2152 11.3331,8.7392 10.9624,9.3254 10.624,9.957 z"
       class="fil0"
       id="Hals" /><path
       style="fill:#0065bd"
       inkscape:connector-curvature="0"
       d="m 13.3696,7.2029 2e-4,2e-4 0.0033,0.0041 c 0.3419,0.3782 0.7285,0.6497 1.0768,0.7824 0.3254,0.124 0.6106,0.1251 0.778,-0.0262 0.0192,-0.0174 0.0369,-0.0369 0.0527,-0.0579 0.0148,-0.0198 0.0281,-0.0414 0.0396,-0.064 l 0.0238,-0.0689 -2e-4,-10e-5 0.0259,-0.0773 -2e-4,-10e-5 C 15.4877,7.338 15.5903,6.9671 15.6922,6.5984 15.7965,6.221 15.9005,5.8451 16.0183,5.4917 l 0,-4e-4 C 16.1369,5.1357 16.1656,4.9768 16.0504,4.9384 15.8978,4.8875 15.5591,4.9267 14.9849,4.9932 14.5117,5.048 13.8821,5.1211 13.0568,5.1756 13.0076,5.1825 12.9613,5.1953 12.9188,5.214 l 1e-4,10e-5 c -0.04,0.0176 -0.076,0.0401 -0.1073,0.0676 l 2e-4,2e-4 -10e-5,10e-5 -0.0041,0.0033 c -0.1675,0.1514 -0.1951,0.4353 -0.1047,0.7715 0.0966,0.3585 0.3265,0.7691 0.6665,1.1463 l 2e-4,-2e-4 z"
       class="fil0"
       id="Kopf" /></g></g><path
   style="fill:#0065bd;fill-rule:nonzero"
   inkscape:connector-curvature="0"
   d="m 514.81593,771.01918 0,22.71203 -4.81124,0 0,-22.71203 -5.60126,0 0,22.74463 -4.69474,0 0,5.56838 20.81083,0 0,-22.60998 5.01959,0 0,22.64343 27.21402,0 0,-28.33682 -5.83966,0 -10e-4,22.46258 -4.98415,0 0,-22.46258 -5.84079,0 0,22.46258 -4.91301,0 0,-22.47222 -16.35845,0 z m -9.74551,23.41333 0,0 0,-22.74633 4.26586,0 0,22.71203 6.14806,0 -0.002,-22.71062 15.02362,0 0,22.47081 6.25011,0 0,-22.46117 4.50397,0 0,22.46117 6.32183,0 -0.002,-22.46117 4.50283,0 0,27.00142 -25.87634,0 0,-22.64287 -6.35585,0 0,22.608 -19.47401,0 0,-4.23127 4.69332,0 z"
   class="fil2"
   id="TUM_x0020_-_x0020_leer" /><text
   xml:space="preserve"
   style="font-size:6.80000019px;font-style:normal;font-variant:normal;font-weight:normal;font-stretch:normal;text-align:start;line-height:125%;letter-spacing:0px;word-spacing:0px;writing-mode:lr-tb;text-anchor:start;fill:#0065bd;fill-opacity:1;stroke:none;font-family:TUM Neue Helvetica;-inkscape-font-specification:TUM Neue Helvetica"
   x="42.519684"
   y="-755.8866"
   id="text3201"
   sodipodi:linespacing="125%"
   transform="scale(1,-1)"><tspan
     sodipodi:role="line"
     id="tspan3203"
     x="42.519684"
     y="-755.8866"
     style="font-size:9.6px">Lehrstuhl für Angewandte Mechanik</tspan></text>





<text
   xml:space="preserve"
   style="font-size:11.06129932px;font-style:normal;font-variant:normal;font-weight:normal;font-stretch:normal;text-align:end;line-height:125%;letter-spacing:0px;word-spacing:0px;writing-mode:lr-tb;text-anchor:end;fill:#a2ad00;fill-opacity:1;stroke:none;font-family:TUM Neue Helvetica;-inkscape-font-specification:TUM Neue Helvetica"
   x="552.75311"
   y="-755.8866"
   id="text3201-8"
   sodipodi:linespacing="125%"
   transform="scale(1,-1)"><tspan
     sodipodi:role="line"
     id="tspan3203-4"
     x="552.75311"
     y="-755.8866"
     style="font-size:9.60000038px;fill:#0065bd">Technische Universität München</tspan></text>




</g></svg>